<?xml version="1.0" standalone="no"?>
<!DOCTYPE svg PUBLIC "-//W3C//DTD SVG 20010904//EN"
 "http://www.w3.org/TR/2001/REC-SVG-20010904/DTD/svg10.dtd">
<svg version="1.0" xmlns="http://www.w3.org/2000/svg"
 width="900.000000pt" height="900.000000pt" viewBox="0 0 900.000000 900.000000"
 preserveAspectRatio="xMidYMid meet">

<g transform="translate(0.000000,900.000000) scale(0.100000,-0.100000)"
fill="#000000" stroke="none">
<path d="M3245 8933 c-1468 -72 -2721 -1099 -3079 -2523 -143 -567 -137 -1148
18 -1710 106 -386 303 -788 540 -1104 340 -452 743 -783 1246 -1024 640 -308
1361 -400 2065 -265 333 63 645 176 960 346 106 57 340 208 436 281 l45 35
147 -147 146 -147 -31 -90 c-28 -80 -32 -102 -31 -200 0 -93 4 -122 27 -190
15 -44 44 -107 64 -140 26 -44 259 -285 857 -887 451 -455 840 -843 865 -862
109 -83 237 -126 376 -126 115 0 197 20 298 72 73 37 103 63 297 257 194 194
220 224 257 297 51 100 72 184 72 294 0 143 -43 271 -126 380 -19 25 -409 417
-867 870 -761 755 -838 829 -904 863 -100 52 -153 67 -263 74 -107 6 -168 -4
-267 -43 l-65 -26 -149 148 -148 147 43 56 c305 398 529 905 625 1412 74 391
70 868 -10 1269 -141 702 -514 1357 -1040 1826 -574 512 -1262 801 -2034 854
-144 10 -212 10 -370 3z m511 -639 c414 -53 805 -198 1146 -424 182 -121 280
-201 438 -359 611 -612 891 -1465 765 -2326 -68 -462 -277 -938 -573 -1305
-99 -122 -290 -313 -412 -412 -367 -296 -842 -504 -1305 -573 -739 -109 -1479
84 -2073 540 -145 111 -381 346 -485 483 -260 341 -435 719 -517 1117 -73 357
-73 753 0 1110 66 321 205 660 381 927 474 719 1225 1167 2074 1237 138 12
415 4 561 -15z"/>
<path d="M1661 6418 c-28 -44 -100 -194 -131 -273 -42 -106 -95 -317 -110
-438 -20 -157 -8 -463 24 -613 152 -718 704 -1279 1416 -1439 412 -93 861 -39
1235 147 74 37 245 136 245 142 0 1 -73 0 -162 -2 -675 -18 -1286 217 -1762
678 -447 434 -692 976 -727 1610 -12 225 -11 216 -28 188z"/>
</g>
</svg>
